<svg width="92" height="92" viewBox="0 0 92 92" fill="none" xmlns="http://www.w3.org/2000/svg">
<rect width="92" height="92" rx="46" fill="#7C3AED"/>
<path d="M43.8462 34.2291C47.8061 33.7572 51.8116 34.5943 55.2511 36.6126C58.6906 38.6309 61.375 41.7194 62.8944 45.4065C63.0361 45.7882 63.0361 46.208 62.8944 46.5897C62.2697 48.1043 61.444 49.5281 60.4396 50.8226M49.5429 49.6683C48.581 50.5973 47.2928 51.1114 45.9556 51.0997C44.6184 51.0881 43.3393 50.5518 42.3937 49.6062C41.4481 48.6606 40.9118 47.3815 40.9001 46.0443C40.8885 44.7071 41.4026 43.4189 42.3316 42.457M55.3143 55.348C53.0592 56.6838 50.5432 57.5189 47.937 57.7966C45.3308 58.0744 42.6953 57.7882 40.2094 56.9577C37.7235 56.1271 35.4453 54.7715 33.5295 52.9829C31.6136 51.1943 30.1049 49.0145 29.1058 46.5914C28.9641 46.2098 28.9641 45.7899 29.1058 45.4082C30.613 41.753 33.2651 38.6853 36.6639 36.6653M29.0004 29L62.9999 62.9995" stroke="white" stroke-width="3" stroke-linecap="round" stroke-linejoin="round"/>
</svg>
