<svg width="92" height="92" viewBox="0 0 92 92" fill="none" xmlns="http://www.w3.org/2000/svg">
<rect width="92" height="92" rx="46" fill="#FFDD55"/>
<path d="M52.7942 62.9915C52.4687 63.3169 52.0272 63.4998 51.5669 63.4998C51.1066 63.4998 50.6651 63.3169 50.3396 62.9915L47.5864 60.2383C47.2609 59.9127 47.0781 59.4713 47.0781 59.011C47.0781 58.5506 47.2609 58.1092 47.5864 57.7836L57.2834 48.0866C57.6089 47.7612 58.0504 47.5784 58.5107 47.5784C58.971 47.5784 59.4125 47.7612 59.738 48.0866L62.4912 50.8398C62.8167 51.1654 62.9995 51.6069 62.9995 52.0672C62.9995 52.5275 62.8167 52.9689 62.4912 53.2945L52.7942 62.9915Z" stroke="black" stroke-width="3" stroke-linecap="round" stroke-linejoin="round"/>
<path d="M56.7752 48.5955L54.3883 36.6625C54.3233 36.3379 54.1669 36.0386 53.9375 35.7999C53.708 35.5612 53.4151 35.3931 53.0933 35.3154L31.1439 29.5486C30.8547 29.4787 30.5525 29.4843 30.2661 29.5648C29.9797 29.6453 29.7188 29.7981 29.5084 30.0084C29.2981 30.2188 29.1453 30.4797 29.0648 30.7661C28.9843 31.0525 28.9787 31.3547 29.0486 31.6439L34.8154 53.5933C34.8931 53.9151 35.0612 54.208 35.2999 54.4375C35.5386 54.6669 35.8379 54.8233 36.1625 54.8883L48.0955 57.2752" stroke="black" stroke-width="3" stroke-linecap="round" stroke-linejoin="round"/>
<path d="M29.521 30.0211L42.1691 42.6692" stroke="black" stroke-width="3" stroke-linecap="round" stroke-linejoin="round"/>
<path d="M44.6233 48.5954C46.5407 48.5954 48.0952 47.041 48.0952 45.1235C48.0952 43.206 46.5407 41.6516 44.6233 41.6516C42.7058 41.6516 41.1514 43.206 41.1514 45.1235C41.1514 47.041 42.7058 48.5954 44.6233 48.5954Z" stroke="black" stroke-width="3" stroke-linecap="round" stroke-linejoin="round"/>
</svg>
