<svg width="92" height="92" viewBox="0 0 92 92" fill="none" xmlns="http://www.w3.org/2000/svg">
<rect width="92" height="92" rx="46" fill="#FFDD55"/>
<path d="M53.4222 62.4001V58.689C53.4222 56.7205 52.6402 54.8326 51.2483 53.4407C49.8563 52.0487 47.9685 51.2667 46 51.2667H34.8666C32.8981 51.2667 31.0102 52.0487 29.6183 53.4407C28.2263 54.8326 27.4443 56.7205 27.4443 58.689V62.4001" stroke="black" stroke-width="3" stroke-linecap="round" stroke-linejoin="round"/>
<path d="M53.4224 29.2375C55.014 29.6502 56.4235 30.5796 57.4298 31.88C58.436 33.1804 58.982 34.7781 58.982 36.4223C58.982 38.0665 58.436 39.6642 57.4298 40.9646C56.4235 42.265 55.014 43.1944 53.4224 43.607" stroke="black" stroke-width="3" stroke-linecap="round" stroke-linejoin="round"/>
<path d="M64.5555 62.4002V58.6891C64.5542 57.0445 64.0069 55.447 62.9993 54.1472C61.9918 52.8475 60.5811 51.9192 58.9888 51.5081" stroke="black" stroke-width="3" stroke-linecap="round" stroke-linejoin="round"/>
<path d="M40.4335 43.8445C44.5327 43.8445 47.8557 40.5214 47.8557 36.4222C47.8557 32.3231 44.5327 29 40.4335 29C36.3343 29 33.0112 32.3231 33.0112 36.4222C33.0112 40.5214 36.3343 43.8445 40.4335 43.8445Z" stroke="black" stroke-width="3" stroke-linecap="round" stroke-linejoin="round"/>
</svg>
