<svg width="92" height="92" viewBox="0 0 92 92" fill="none" xmlns="http://www.w3.org/2000/svg">
<rect width="92" height="92" rx="46" fill="#7C3AED"/>
<path d="M42.3999 44.2V54.9999" stroke="white" stroke-width="3" stroke-linecap="round" stroke-linejoin="round"/>
<path d="M49.6001 44.2V54.9999" stroke="white" stroke-width="3" stroke-linecap="round" stroke-linejoin="round"/>
<path d="M58.5998 35.2V60.3999C58.5998 61.3547 58.2205 62.2703 57.5454 62.9455C56.8703 63.6206 55.9546 63.9999 54.9998 63.9999H36.9999C36.0451 63.9999 35.1294 63.6206 34.4543 62.9455C33.7792 62.2703 33.3999 61.3547 33.3999 60.3999V35.2" stroke="white" stroke-width="3" stroke-linecap="round" stroke-linejoin="round"/>
<path d="M29.7998 35.2H62.1997" stroke="white" stroke-width="3" stroke-linecap="round" stroke-linejoin="round"/>
<path d="M38.8003 35.2V31.6C38.8003 30.6452 39.1796 29.7295 39.8547 29.0544C40.5298 28.3793 41.4455 28 42.4003 28H49.6003C50.555 28 51.4707 28.3793 52.1458 29.0544C52.821 29.7295 53.2003 30.6452 53.2003 31.6V35.2" stroke="white" stroke-width="3" stroke-linecap="round" stroke-linejoin="round"/>
</svg>
