<svg width="92" height="92" viewBox="0 0 92 92" fill="none" xmlns="http://www.w3.org/2000/svg">
<rect width="92" height="92" rx="46" fill="#FFDD55"/>
<path d="M46 38.2C55.3888 38.2 63 35.5809 63 32.35C63 29.1191 55.3888 26.5 46 26.5C36.6112 26.5 29 29.1191 29 32.35C29 35.5809 36.6112 38.2 46 38.2Z" stroke="black" stroke-width="3" stroke-linecap="round" stroke-linejoin="round"/>
<path d="M29 32.3501V59.6501C29 61.2016 30.7911 62.6896 33.9792 63.7867C37.1673 64.8838 41.4913 65.5001 46 65.5001C50.5087 65.5001 54.8327 64.8838 58.0208 63.7867C61.2089 62.6896 63 61.2016 63 59.6501V32.3501" stroke="black" stroke-width="3" stroke-linecap="round" stroke-linejoin="round"/>
<path d="M29 46.0002C29 47.5518 30.7911 49.0397 33.9792 50.1368C37.1673 51.2339 41.4913 51.8502 46 51.8502C50.5087 51.8502 54.8327 51.2339 58.0208 50.1368C61.2089 49.0397 63 47.5518 63 46.0002" stroke="black" stroke-width="3" stroke-linecap="round" stroke-linejoin="round"/>
</svg>
